<svg width="116" height="55" viewBox="0 0 116 55" fill="none" xmlns="http://www.w3.org/2000/svg">

<path d="M54 19.375C45.936 19.375 39.375 25.936 39.375 34C39.375 42.064 45.936 48.625 54 48.625C62.064 48.625 68.625 42.064 68.625 34C68.625 25.936 62.064 19.375 54 19.375ZM54 21.625C60.8231 21.625 66.375 27.1769 66.375 34C66.375 40.8231 60.8231 46.375 54 46.375C47.1769 46.375 41.625 40.8231 41.625 34C41.625 27.1769 47.1769 21.625 54 21.625ZM48.375 29.5C46.0192 29.5 44.3137 30.8579 44.3137 30.8579L45.6862 32.6421C45.6862 32.6421 46.9035 31.75 48.3761 31.75C49.8488 31.75 51.0649 32.6421 51.0649 32.6421L52.4374 30.8579C52.434 30.8579 50.7296 29.5 48.375 29.5ZM59.625 29.5C57.2692 29.5 55.5637 30.8579 55.5637 30.8579L56.9363 32.6421C56.9363 32.6421 58.1535 31.75 59.6261 31.75C61.0988 31.75 62.3149 32.6421 62.3149 32.6421L63.6874 30.8579C63.684 30.8579 61.9796 29.5 59.625 29.5ZM48.1613 37.375L46.2263 38.5C47.0075 39.8432 48.1189 40.9646 49.455 41.758C49.7891 41.956 50.1345 42.1326 50.4934 42.2867C51.2234 42.5979 51.9919 42.8098 52.7782 42.9167C53.589 43.028 54.411 43.028 55.2218 42.9167C57.1735 42.6467 58.9816 41.7399 60.3653 40.3371C60.9106 39.7868 61.3839 39.1695 61.7738 38.5L59.8388 37.375C59.0918 38.6703 57.9356 39.6807 56.5519 40.2475C55.1682 40.8142 53.6354 40.9051 52.1944 40.5059C51.6279 40.349 51.0847 40.1179 50.5789 39.8185C49.5767 39.2253 48.7433 38.3837 48.1613 37.375Z" fill="url(#paint1_linear_27508_2728)"/>
<path d="M98 29C98 27.3333 99.19 25.6667 101.572 25.6667C102.835 25.6667 104.046 25.165 104.939 24.272C105.832 23.379 106.333 22.1679 106.333 20.905V19.8333M91.3333 29V28.1667C91.3333 26.8406 91.8601 25.5688 92.7978 24.6311C93.7355 23.6935 95.0073 23.1667 96.3333 23.1667C97.2174 23.1667 98.0652 22.8155 98.6904 22.1904C99.3155 21.5652 99.6667 20.7174 99.6667 19.8333V19M106.333 33.3333V39C106.333 41.6522 105.28 44.1957 103.404 46.0711C101.529 47.9464 98.9855 49 96.3333 49H93C90.3478 49 87.8043 47.9464 85.9289 46.0711C84.0536 44.1957 83 41.6522 83 39V33.3333C83 33.0681 83.1054 32.8138 83.2929 32.6262C83.4804 32.4387 83.7348 32.3333 84 32.3333H105.333C105.599 32.3333 105.853 32.4387 106.04 32.6262C106.228 32.8138 106.333 33.0681 106.333 33.3333Z" stroke="url(#paint2_linear_27508_2728)" stroke-width="1.5" stroke-linecap="round" stroke-linejoin="round"/>
<path d="M104.667 32.332H108.834C109.939 32.332 110.999 32.771 111.78 33.5524C112.561 34.3338 113 35.3936 113 36.4987C113 37.6038 112.561 38.6636 111.78 39.445C110.999 40.2264 109.939 40.6654 108.834 40.6654H106.334" stroke="url(#paint3_linear_27508_2728)" stroke-width="1.5" stroke-linecap="round" stroke-linejoin="round"/>
<defs>
<linearGradient id="paint2_linear_27508_2728" x1="94.6667" y1="19" x2="114.165" y2="34.9781" gradientUnits="userSpaceOnUse">
<stop stop-color="#734e08"/>
<stop offset="0.527599" stop-color="#734e08"/>
<stop offset="1" stop-color="#734e08"/>
</linearGradient>
<linearGradient id="paint3_linear_27508_2728" x1="108.834" y1="32.332" x2="114.35" y2="38.1441" gradientUnits="userSpaceOnUse">
<stop stop-color="#734e08"/>
<stop offset="0.527599" stop-color="#734e08"/>
<stop offset="1" stop-color="#734e08"/>
</linearGradient>
</defs>
</svg>
