<svg width="88" height="88" viewBox="0 0 88 88" fill="none" xmlns="http://www.w3.org/2000/svg">
<path d="M33 36.6654L44.946 45.6267C45.6861 46.1818 46.6086 46.4365 47.5287 46.34C48.4487 46.2434 49.2983 45.8026 49.907 45.106L73.3333 18.332" stroke="#04C65D" stroke-width="3" stroke-linecap="round"/>
<path d="M77 43.9994C77.0001 50.8947 74.8404 57.6168 70.8241 63.2216C66.8078 68.8264 61.1367 73.0324 54.6074 75.2488C48.078 77.4651 41.0184 77.5806 34.4201 75.5789C27.8218 73.5772 22.0162 69.5589 17.8188 64.0884C13.6214 58.6179 11.243 51.97 11.0176 45.0785C10.7923 38.1869 12.7313 31.3978 16.5624 25.6648C20.3935 19.9318 25.9242 15.5429 32.3776 13.1144C38.8311 10.6859 45.8832 10.34 52.5433 12.1251" stroke="#04C65D" stroke-width="3" stroke-linecap="round"/>
</svg>
