<svg width="107" height="177" viewBox="0 0 107 177" fill="none" xmlns="http://www.w3.org/2000/svg">
<path fill-rule="evenodd" clip-rule="evenodd" d="M69.1915 -6.04891e-06L71.1777 1.88135C72.2292 2.90042 73.9039 4.07628 74.8775 4.50742C75.8511 4.93857 77.37 5.95764 78.2268 6.78073C79.1225 7.56463 80.1351 8.85807 80.5246 9.60277C80.914 10.3475 81.4203 12.0329 81.654 13.3263C81.8877 14.6197 82.0824 16.3443 82.0824 17.1674C82.0824 17.9513 82.0045 18.892 81.8877 19.2056C81.7319 19.7151 81.4593 19.7151 80.213 19.3623C79.4341 19.088 78.1489 18.5392 77.409 18.1081C76.669 17.6769 75.4617 16.8539 74.7607 16.3051C74.0597 15.7564 72.8913 14.3454 72.1513 13.2087C71.4114 12.1113 70.4378 10.0731 70.0094 8.70129C69.5031 7.13349 69.2304 5.17374 69.1915 3.1356L69.1915 -6.04891e-06ZM91.5071 4.31144C91.6629 4.42903 92.2082 5.52649 92.6755 6.74154C93.3376 8.54451 93.5323 9.87714 93.5712 13.1303C93.5712 16.8538 93.4933 17.4418 92.5197 19.4015C91.9355 20.5774 91.0787 22.2628 90.5725 23.1251C90.0272 24.1441 89.6378 25.7903 89.443 27.8285C89.2873 29.553 89.1315 31.3168 89.0925 31.748C89.0925 32.1791 88.6641 30.9249 88.1578 29.0043C87.6516 27.0837 86.6779 24.3009 86.0159 22.8115C85.0812 20.7734 84.8086 19.6367 84.8086 17.7161C84.8475 16.1091 85.1201 14.6981 85.6264 13.5223C86.0548 12.5424 87.2621 10.857 88.2747 9.79875C89.5209 8.50531 90.2998 7.21188 90.6503 5.99683C90.923 4.97776 91.3124 4.23305 91.5071 4.31144ZM26.858 16.4619L27.8316 17.6378C28.3379 18.3041 29.3116 19.9503 29.9736 21.3613C30.9473 23.3994 31.2588 24.5361 31.3757 27.0446C31.5314 29.5922 31.3757 30.6113 30.6746 32.5319C30.2073 33.8253 29.701 36.2554 29.3116 40.9196L27.1696 38.3327C26.0012 36.9217 24.5213 34.962 23.8592 33.9429C22.9245 32.4927 22.6909 31.6304 22.574 29.3963C22.4572 27.3189 22.574 26.2999 23.0803 25.2808C23.4698 24.5361 24.3655 22.9291 25.0665 21.7532C25.7675 20.5774 26.4296 18.892 26.5854 18.0297L26.858 16.4619ZM98.2057 18.0297C98.4004 18.4608 98.8288 19.8719 99.1015 21.1653C99.3741 22.4587 99.6078 24.4969 99.6078 25.6727C99.6078 26.8486 99.3741 28.7691 99.0236 29.8666C98.6731 31.1992 97.7773 32.767 96.57 34.178C95.5185 35.4323 94.428 36.9609 94.0775 37.6272C93.766 38.2935 93.2597 39.8613 93.026 41.1548C92.6755 42.7226 92.4418 43.3105 92.2082 42.9185C92.0524 42.605 91.5071 40.7236 91.0398 38.8031C90.4946 36.6081 90.1441 34.0213 90.1051 31.9439C90.1051 29.1219 90.2219 28.2988 91.0398 26.6918C91.7019 25.3984 92.8313 24.1441 94.467 22.8507C96.57 21.2045 96.9595 20.7342 97.3489 19.088C97.7384 17.481 97.8163 17.3242 98.2057 18.0297ZM0.375227 18.2257C0.647843 18.2257 1.07624 18.3825 1.27097 18.5784C1.50464 18.7744 2.63405 19.2056 3.80241 19.5583C5.00971 19.9111 6.45069 20.1854 7.03487 20.1854C7.61905 20.1854 9.09896 20.5774 10.3452 21.0477C11.5525 21.5181 13.1882 22.4587 13.8892 23.0859C14.6292 23.7522 15.6028 25.0064 16.1091 25.8687C16.6154 26.731 17.3554 28.5732 17.8227 29.9842C18.4069 31.7872 18.5237 32.6494 18.2511 32.9238C17.9655 33.1851 16.8231 33.1459 14.8239 32.8062C13.0714 32.5319 10.7736 31.7872 9.33264 31.0425C7.89166 30.3369 5.9444 28.8475 4.7371 27.6325C3.60768 26.4566 2.12776 24.4185 1.50464 23.1251C0.881515 21.8316 0.258391 20.1854 0.10261 19.4799C-0.0921165 18.5392 -0.014226 18.2257 0.375227 18.2257ZM74.8775 19.3231C75.5396 19.4015 76.7469 19.7935 77.6037 20.1854C78.4605 20.5774 79.9793 21.7532 80.953 22.8115C81.9266 23.8306 83.4065 25.9863 84.1854 27.5149C84.9643 29.0827 85.5875 30.6897 85.6264 31.0424C85.6264 31.6696 85.5096 31.6696 84.7307 30.9249C84.2633 30.4545 83.4455 29.8666 82.9781 29.6314C82.4718 29.3963 81.0698 29.2003 79.8625 29.2395C77.6816 29.2787 77.6426 29.2787 79.0836 29.6314C79.8625 29.8274 81.1866 30.3369 82.0045 30.7289C82.7834 31.1208 83.9518 31.9831 84.5749 32.571C85.198 33.1982 86.1327 34.4916 86.7169 35.4715C87.2621 36.4514 88.1189 38.3719 88.5862 39.7829C89.0925 41.194 89.482 42.9577 89.443 45.0743L88.781 44.0944C88.4305 43.5457 87.7684 42.7618 87.34 42.2914C86.9116 41.8603 85.7043 41.2332 84.6138 40.8804C83.5623 40.5276 81.8877 40.0573 80.914 39.7829C79.9793 39.5086 78.4605 38.8814 77.6037 38.4111C76.7469 37.9408 75.5006 36.8825 74.7996 36.0986C74.0986 35.3147 73.086 33.7861 72.5408 32.7278C72.0345 31.6304 71.5672 30.4937 71.5672 30.1802C71.5672 29.8666 71.9566 29.5138 72.4629 29.3963C72.9302 29.2787 74.1376 29.2003 76.8248 29.1219L74.8775 28.5732C73.826 28.2596 72.2682 27.5541 71.4114 26.9662C70.5935 26.339 68.841 24.6537 67.5169 23.2034C66.2317 21.7532 65.1023 20.3814 65.0633 20.1854C64.9854 19.9503 66.3485 19.7543 68.1789 19.7543C69.9315 19.7151 71.9177 19.5583 72.5408 19.4015C73.2029 19.2447 74.2544 19.2056 74.8775 19.3231ZM39.9047 30.9641C40.6057 32.4535 41.4235 34.7268 41.6962 35.9418C42.0467 37.7056 42.0856 38.6855 41.7351 40.2533C41.5014 41.3899 40.6836 43.3889 39.9047 44.6823C39.1647 45.9758 38.3469 47.7395 38.1132 48.6018C37.8795 49.4641 37.6458 50.8359 37.6069 51.659C37.568 52.4429 37.3732 53.1092 37.2174 53.1092C37.0617 53.1092 36.0491 51.3063 34.9976 49.0722C33.946 46.8772 32.8556 44.0944 32.6219 42.9185C32.3882 41.7427 32.3103 40.1357 32.4272 39.391C32.583 38.6463 33.0503 37.392 33.4398 36.6473C33.8292 35.9026 34.9586 34.374 35.9323 33.3158C36.9059 32.2183 37.8016 30.9249 37.9185 30.3761C38.0353 29.8274 38.23 29.1219 38.3469 28.8083C38.5026 28.4556 39.0868 29.2787 39.9047 30.9641ZM103.97 30.9641C104.125 31.3952 104.242 33.9821 104.281 36.7257C104.281 41.3115 104.203 41.8995 103.308 43.7024C102.684 44.9959 101.633 46.1717 100.309 47.1908C99.1794 48.0531 97.6994 49.5033 97.0374 50.444C96.3364 51.3455 95.4796 52.8349 94.428 55.265L93.8828 53.5012C93.5712 52.5213 93.3376 50.0128 93.2986 47.8179C93.2986 45.0351 93.4934 43.3889 93.9607 42.1346C94.3112 41.1548 95.0901 39.7437 95.6743 38.999C96.2974 38.2543 97.8942 37.0001 99.2572 36.2162C100.659 35.4323 101.983 34.5308 102.217 34.2564C102.451 33.9429 102.879 32.9238 103.152 31.9439C103.58 30.4937 103.736 30.3369 103.97 30.9641ZM14.3176 35.2363C15.8754 35.3539 17.7059 35.785 18.9911 36.373C20.1984 36.9217 22.3793 38.4895 26.5464 42.3306L23.8592 42.5658C22.3793 42.6834 19.5752 43.1145 17.628 43.5065C14.7071 44.0944 13.8113 44.1336 12.1756 43.7416C11.1241 43.5065 8.4369 42.3698 6.25596 41.2332C4.03608 40.1357 2.2446 39.0382 2.2446 38.8031C2.2446 38.5679 2.90667 38.2935 3.72452 38.1368C4.50343 37.98 6.68436 37.2353 8.47584 36.4514C11.3967 35.2363 12.0978 35.0795 14.3176 35.2363ZM76.3964 38.6071C76.5132 38.6071 77.2142 38.9598 77.9152 39.3518C78.6163 39.7829 80.4856 40.4884 82.0824 40.9588C83.7181 41.3899 85.5485 42.1738 86.1716 42.6834C86.8337 43.1929 87.8852 44.3688 88.5084 45.3094C89.1704 46.2501 89.9883 47.9747 90.3777 49.1897C90.7672 50.444 91.0787 52.5213 91.0787 54.1675C91.0398 55.8137 90.884 57.0287 90.6503 57.0287C90.4556 57.0287 90.2609 56.9112 90.2998 56.7152C90.2998 56.5584 89.482 55.6177 88.5473 54.5595C87.3789 53.3836 85.7822 52.2469 83.9518 51.4239C82.3939 50.6791 80.6025 49.5817 79.9793 48.9546C79.3562 48.3274 78.3436 46.7596 77.7205 45.4662C77.1363 44.1728 76.5132 42.0954 76.3964 40.8412C76.2406 39.6262 76.2406 38.6071 76.3964 38.6071ZM90.3777 42.9185C90.4946 43.0361 90.884 44.4471 91.1956 46.0541C91.5071 47.6611 91.9745 50.6008 92.2471 52.5213C92.5587 54.6378 92.7534 59.7332 92.7144 74.4705L93.4155 72.5108C93.8049 71.4133 94.8175 69.7671 95.5964 68.8264C96.4142 67.8858 97.6994 66.7883 98.4394 66.4355C99.2183 66.0436 100.542 65.5341 101.477 65.2989C102.373 65.0637 103.658 64.4366 104.281 63.8879C104.943 63.3391 105.644 62.908 105.839 62.908C106.112 62.908 106.151 63.8487 105.995 65.3381C105.878 66.7099 105.605 68.4345 105.372 69.1792C105.177 69.9239 104.515 71.3349 103.892 72.3148C103.191 73.4515 101.906 74.7057 100.153 75.8423C98.6731 76.8222 96.3753 78.7036 95.0512 80.0362C92.8313 82.3095 92.5976 82.4271 92.4418 81.604C92.325 81.1337 92.2082 80.193 92.1692 79.5659C92.1692 78.9388 91.7408 80.5066 91.2345 83.0934C90.7282 85.6803 90.1051 88.6591 89.8714 89.7566C89.6378 90.8148 89.2873 92.3826 89.0925 93.1665C88.8978 93.9896 88.5084 95.4007 88.2747 96.3021C88.041 97.2428 87.4958 98.9674 87.1063 100.143C86.7169 101.319 86.4832 102.338 86.6 102.377C86.6779 102.456 87.3789 101.28 88.1189 99.7513C88.8978 98.2227 90.1441 96.2629 90.9619 95.4007C91.7408 94.4992 93.2597 93.2449 94.2723 92.5394C95.2848 91.8731 96.0248 91.246 95.908 91.1284C95.8301 91.0108 95.168 91.2068 94.5059 91.5204C93.8049 91.8339 92.5197 92.9706 91.585 94.068C90.6503 95.1263 89.8325 95.9494 89.7157 95.8318C89.5988 95.7142 89.7546 94.1464 90.0662 92.3043C90.3777 90.4621 90.923 88.1888 91.2345 87.2089C91.585 86.229 92.286 84.7788 92.8313 83.9557C93.3376 83.1718 94.5838 81.9568 95.5185 81.3297C96.8426 80.4282 98.1278 80.0362 100.698 79.6443C102.568 79.3699 104.671 78.782 105.372 78.3508C106.034 77.9589 106.696 77.7237 106.813 77.8805C106.929 78.0765 106.696 78.6644 106.306 79.2523C105.878 79.8794 104.865 81.8392 104.009 83.6813C102.84 86.1506 101.944 87.4441 100.542 88.6983C99.4909 89.5998 98.4394 90.3837 98.1668 90.3445C97.8942 90.3445 97.6215 90.4621 97.5047 90.6189C97.4268 90.8148 99.3351 90.9324 106.151 90.9324L105.566 92.1083C105.216 92.7354 104.32 94.264 103.502 95.4399C102.723 96.6157 101.555 98.1051 100.932 98.7322C100.309 99.3594 99.1015 100.182 96.6869 101.28L99.5299 101.28C101.088 101.319 102.451 101.476 102.529 101.711C102.645 101.946 102.139 102.848 101.438 103.749C100.737 104.69 99.4909 106.454 98.712 107.669C97.9331 108.923 96.609 110.373 95.8301 110.922C94.8954 111.588 93.1818 112.137 91.0398 112.529C89.0925 112.882 86.8727 113.587 85.5875 114.253C84.4191 114.92 83.4065 115.39 83.3286 115.312C83.2508 115.273 83.2897 114.606 83.4065 113.862C83.5234 113.117 84.2244 111.275 84.9643 109.746C85.899 107.904 87.0674 106.258 88.7031 104.729C90.2998 103.2 90.7672 102.573 90.183 102.73C89.6767 102.887 88.742 103.24 88.041 103.514C87.34 103.828 86.6 103.984 86.3664 103.867C86.1716 103.749 85.7043 104.611 85.3927 105.709C85.0812 106.846 84.6528 108.139 84.458 108.57C84.2633 109.001 83.7181 110.412 83.2507 111.706C82.7834 112.999 82.0824 114.802 81.654 115.704C81.2645 116.644 80.914 117.546 80.914 117.781C80.914 118.016 80.7583 118.487 80.5635 118.839C80.3299 119.231 79.6288 120.721 79.0057 122.171C78.3436 123.66 77.7984 124.915 77.7984 125.032C77.7984 125.15 76.2796 128.364 74.3712 132.166C72.5019 136.007 69.9704 140.945 68.7242 143.14C67.5169 145.374 66.4264 147.177 66.3096 147.177C66.2317 147.177 68.101 143.258 70.5157 138.437C72.9303 133.655 75.3838 128.677 75.968 127.384C76.5132 126.09 77.409 124.052 77.9542 122.876C78.4605 121.701 79.2004 120.015 79.551 119.153C79.9015 118.291 80.1741 117.193 80.1741 116.684C80.1351 116.213 79.7067 114.881 79.1226 113.744C78.5773 112.646 77.0585 110.569 75.6954 109.158C73.7871 107.159 73.125 106.062 72.4629 104.063C71.9956 102.652 71.4893 100.378 71.3335 98.9674C71.2167 97.5564 71.2167 95.5966 71.3335 94.5384C71.4893 93.5193 71.7229 92.6962 71.8787 92.6962C72.0345 92.6962 72.6187 93.4017 73.125 94.264C73.7741 95.3092 74.7347 96.1192 76.0069 96.6941C77.0584 97.2036 78.4994 98.2619 79.2394 99.0458C79.9404 99.8689 80.7972 101.006 81.0698 101.593C81.3814 102.221 81.8098 103.671 82.0434 104.847C82.2771 106.023 82.355 108.217 82.2771 109.746C82.1603 111.275 82.1992 112.215 82.3161 111.902C82.4329 111.588 82.7055 110.961 82.8613 110.53C83.056 110.099 83.5623 108.649 84.0297 107.277C84.6917 105.239 84.7307 104.768 84.3023 104.337C83.9907 104.102 83.095 102.73 82.2382 101.319C81.4203 99.9473 79.6288 97.5956 78.3047 96.1454C76.4743 94.1464 75.7343 92.9706 75.267 91.4028C74.9165 90.1877 74.6828 87.7184 74.6828 81.1337L76.3574 82.8975C77.2532 83.8773 79.0836 85.4451 80.4467 86.3466C81.7708 87.2481 83.2897 88.6591 83.796 89.443C84.3023 90.2661 84.8865 91.5595 85.1591 92.3043C85.3927 93.049 85.6264 95.2831 85.5875 97.2036C85.5875 99.1242 85.4317 101.437 85.198 102.299C84.9643 103.161 84.8865 103.945 84.9643 104.063C85.0812 104.18 85.4317 103.2 85.7822 101.907C86.1327 100.614 86.6779 98.5755 87.0284 97.3996C87.6516 95.2831 87.6126 95.2047 86.5611 92.5002C85.6654 90.2661 84.9254 89.1687 82.394 86.621C80.6804 84.8964 78.9668 82.8583 78.5773 82.1135C78.2268 81.3688 77.6816 79.6835 77.4479 78.39C77.2142 77.0966 77.0195 75.0584 77.0195 73.8826C77.0195 72.7067 77.1363 71.6093 77.3311 71.4133C77.4868 71.2565 78.071 71.6877 78.5773 72.354C79.1225 73.0203 80.7972 74.2354 82.2771 75.0192C84.0297 75.9599 85.4706 77.0966 86.2885 78.1157C86.9895 79.0171 87.7684 80.5066 88.0021 81.408C88.2357 82.3487 88.4694 84.5044 88.4694 86.229C88.4694 87.9536 88.3526 90.0701 88.1579 90.9324C88.0021 91.8731 88.0021 92.3435 88.2357 92.1083C88.4305 91.8731 88.781 90.8148 89.0146 89.7566C89.2483 88.6591 89.6378 86.7386 89.8714 85.4451C90.1441 84.1517 90.4946 82.1919 90.6504 81.1337C90.8451 80.0362 91.1956 77.9589 91.4293 76.4303C91.624 74.9017 91.8966 70.8646 92.0524 67.4154C92.2082 63.8095 92.1303 58.9101 91.8576 55.8529C91.624 52.9525 91.2345 49.5817 91.0398 48.4058C90.8451 47.23 90.5335 45.4662 90.4167 44.4863C90.2998 43.5065 90.2609 42.8009 90.3777 42.9185ZM49.3684 44.0944C49.602 44.0944 50.1473 45.3878 50.6536 46.9164C51.1598 48.6018 51.5104 50.8359 51.5104 52.3253C51.5104 54.0499 51.2767 55.3826 50.7704 56.4408C50.3809 57.3031 49.2905 58.7925 48.3558 59.7724C47.4601 60.7523 46.1749 62.712 45.5128 64.1622C44.8507 65.6516 44.3444 67.1411 44.3444 67.4938C44.3444 68.1209 44.3055 68.1209 43.7213 67.6114C43.4097 67.2978 42.6698 65.6908 42.0856 64.0839C41.2678 61.8105 41.0341 60.3995 41.0341 58.0086C41.0341 55.4609 41.2288 54.5203 42.0077 52.9525C42.5919 51.7374 44.1108 49.9736 45.9801 48.2491C47.6548 46.7205 49.0179 45.1527 49.0179 44.7607C49.0179 44.4079 49.1736 44.0944 49.3684 44.0944ZM20.1594 45.6622C21.7951 45.6622 23.7034 45.8582 24.4434 46.0933C25.2223 46.3677 26.6243 47.1124 27.559 47.7395C28.5327 48.3666 29.8957 49.5425 30.6357 50.3264C31.3367 51.1103 32.5051 52.5997 33.245 53.6972C33.985 54.7554 34.5302 55.6961 34.4913 55.7353C34.4134 55.7745 33.4398 55.4609 32.2325 55.0298C30.5189 54.4419 29.4673 54.3243 26.7801 54.5203C24.9107 54.6379 22.4572 54.5595 21.1331 54.3243C19.8479 54.0891 17.8617 53.3836 16.7322 52.7957C15.5639 52.2078 13.8503 50.9143 12.9156 49.8561C11.9809 48.837 11.202 47.8571 11.202 47.6219C11.202 47.3868 11.3578 47.23 11.5136 47.1908C11.6694 47.1908 13.0324 46.838 14.5124 46.4461C16.0312 46.0541 18.5627 45.7014 20.1594 45.6622ZM106.929 48.0139C107.046 48.0139 107.007 49.3857 106.891 51.0319C106.735 52.9525 106.306 54.9906 105.722 56.4408C105.177 57.7342 104.32 59.3021 103.814 59.9684C103.308 60.5955 102.295 61.4578 101.555 61.8105C100.815 62.1633 99.452 62.9864 98.5562 63.6527C97.6215 64.319 96.3363 65.6516 95.6353 66.6315C94.5059 68.1993 94.3112 68.3169 93.9996 67.729C93.766 67.337 93.6102 65.6908 93.6102 64.0838C93.6102 62.4768 93.8828 60.1643 94.2333 58.9885C94.6617 57.5775 95.4796 56.1273 96.609 54.873C97.6605 53.6972 99.1015 52.5605 100.231 52.051C101.282 51.5806 102.684 51.0319 103.308 50.7967C103.97 50.5616 105.021 49.8561 105.644 49.1897C106.267 48.5626 106.852 48.0139 106.929 48.0139ZM78.4605 49.9344C79.2004 50.6008 80.4077 51.3063 81.2256 51.5414C82.0045 51.7374 83.0171 51.9334 83.4455 51.9334C83.8739 51.8942 85.1201 52.4821 86.1716 53.1876C87.2621 53.8931 88.5862 55.265 89.1704 56.2448C89.7546 57.2247 90.5335 59.0669 90.8451 60.3603C91.1956 61.6538 91.4293 64.2406 91.4293 66.122C91.4293 68.1601 91.2735 69.5711 91.0398 69.5711C90.8451 69.5711 90.4946 68.9048 90.2998 68.0817C90.1051 67.2586 89.4041 66.122 88.6641 65.4557C87.9242 64.7894 86.4053 63.6919 85.198 63.0256C84.0297 62.3593 82.3939 61.105 81.5761 60.2819C80.7583 59.4588 79.6678 57.9694 79.1225 56.9112C78.6163 55.8921 77.9542 53.9715 77.6426 52.5997C77.2921 51.2671 77.0584 49.8561 77.1363 49.4249C77.1753 48.7978 77.37 48.8762 78.4605 49.9344ZM33.6734 50.7575C33.7903 50.7575 34.4913 51.7766 35.1533 52.9917C35.8154 54.2459 37.1785 56.9504 38.1521 58.9885C39.1647 61.0266 40.4889 64.0447 41.112 65.6516C41.7351 67.2586 42.7087 70.0023 43.254 71.7269C43.7603 73.4515 44.4223 75.7248 44.6949 76.8222C44.9286 77.8805 45.3181 79.4091 45.5128 80.1538C45.6686 80.8985 45.9412 82.0744 46.058 82.7015C46.1749 83.3286 46.6422 85.9155 47.0706 88.3848C47.499 90.854 48.0053 93.9505 48.2 95.2439C48.3947 96.5373 48.8621 99.7121 49.2126 102.299C49.7578 106.023 49.9136 109.785 49.9526 120.329C49.9526 129.148 49.7968 134.988 49.4463 137.575C49.1736 139.73 48.7842 142.631 48.5505 144.042C48.3558 145.453 48.0053 147.648 47.7716 148.941C47.538 150.234 46.9927 152.9 46.5643 154.82C46.1359 156.741 45.5128 159.328 45.2012 160.504C44.8897 161.679 44.5002 163.208 44.3055 163.835C44.1497 164.462 43.6434 166.148 43.215 167.559C42.7866 168.97 41.8909 171.596 41.2288 173.438C40.5278 175.28 39.9047 176.848 39.7489 176.965C39.6321 177.083 39.6321 176.887 39.71 176.574C39.8268 176.26 40.6836 173.673 41.5793 170.89C42.4751 168.107 43.7213 163.757 44.3444 161.287C45.0065 158.818 45.7854 155.447 46.097 153.84C46.4085 152.233 46.8369 149.921 47.0317 148.745C47.2264 147.569 47.5769 145.453 47.8106 144.042C48.0053 142.631 48.3947 139.887 48.6674 137.966C49.0179 135.693 49.1736 129.892 49.1736 121.505C49.1736 110.412 49.0568 107.59 48.2779 101.711C47.8106 97.9483 47.2653 93.9505 47.0317 92.8922C46.8369 91.7947 46.5254 89.8742 46.2917 88.5807C46.058 87.2873 45.5128 84.3869 45.0844 82.1136C44.617 79.8402 43.916 76.6654 43.4876 75.0585C43.0592 73.4515 42.2803 70.9038 41.813 69.3752C41.3067 67.8466 40.5278 65.73 40.0994 64.6718C39.671 63.5743 38.5026 60.9482 37.4511 58.7925C36.4385 56.6368 35.1144 54.0499 34.4913 52.9917C33.9071 51.9726 33.4008 51.0711 33.4008 50.9535C33.4008 50.8359 33.5176 50.7575 33.6734 50.7575ZM18.5627 56.7152L24.2487 56.872C28.9221 56.9896 30.1684 57.1855 31.4535 57.8126C32.3103 58.2438 33.7513 59.2629 34.6081 60.0468C35.5039 60.8699 36.7112 62.3201 37.3343 63.2999C37.9574 64.2798 38.7363 65.926 39.0479 67.0235C39.3594 68.0817 39.5542 69.0616 39.4763 69.1792C39.3594 69.2968 38.6195 68.944 37.8016 68.4737C36.9838 67.9642 35.3091 67.2194 34.1018 66.7883C32.8556 66.3964 30.9083 66.0436 29.701 66.0436C28.2211 66.0436 27.0138 65.7692 25.7286 65.1029C24.716 64.5934 23.2361 63.4567 22.4572 62.6336C21.7172 61.8105 20.7436 60.5955 20.3152 59.9684C19.8868 59.3021 19.3416 58.3222 19.069 57.7343L18.5627 56.7152ZM56.8459 60.5171C57.0016 60.6739 57.2743 61.7321 57.3911 62.9472C57.5469 64.1622 57.43 66.2004 57.1574 67.6506C56.9238 69.0224 56.2617 70.9822 55.7164 71.962C55.1712 72.9027 53.925 74.3137 52.9513 75.0977C51.9777 75.8424 50.4978 77.3318 49.6799 78.4292C48.901 79.4875 48.2 80.5458 48.2 80.7809C48.1611 80.9769 47.9274 81.5256 47.6158 81.9568C47.0706 82.7015 47.0317 82.6623 46.4085 81.1729C45.9412 80.0362 45.7465 78.39 45.7075 75.4896C45.6686 71.6485 45.7465 71.2173 46.7201 69.4928C47.3043 68.4737 48.3558 67.1411 49.0568 66.4747C49.7578 65.8476 51.4325 64.6326 52.7566 63.7703C54.0807 62.9472 55.4438 61.7713 55.8333 61.2618C56.2227 60.7131 56.6901 60.3603 56.8459 60.5171ZM78.071 60.9482C78.2268 60.9482 78.8889 61.4186 79.5509 61.9673C80.1741 62.5552 81.9266 63.5743 83.4455 64.2798C84.9254 64.9853 86.6779 66.0828 87.3011 66.7099C87.9242 67.337 88.8589 68.7872 89.3652 70.0023C90.183 71.8053 90.3388 72.7851 90.2998 76.2735C90.2998 78.5076 90.1051 80.8985 89.4041 82.7407L88.5084 80.7809C88.0021 79.6443 86.7558 77.9981 85.5485 76.8614C84.3802 75.764 82.9002 74.4313 82.2382 73.9218C81.5761 73.3731 80.6025 72.2364 80.0183 71.3741C79.4341 70.5118 78.6942 68.8264 78.3826 67.6506C78.071 66.4355 77.7984 64.4758 77.7984 63.2216C77.7984 62.0065 77.9152 60.9874 78.071 60.9482ZM24.6381 68.8265C24.755 68.8265 25.4949 69.1008 26.2738 69.4144C27.1306 69.7671 28.9221 70.0023 30.5578 70.0023C32.1156 70.0023 33.946 70.2375 34.6471 70.5118C35.3481 70.7862 36.5943 71.5309 37.4511 72.158C38.269 72.7851 39.4373 74.0394 40.0215 74.9017C40.6057 75.764 41.3846 77.3318 41.774 78.4292C42.1245 79.4875 42.5529 81.2121 42.7087 82.2311C42.8256 83.2502 42.9035 84.1125 42.8256 84.1125C42.7866 84.1125 42.0856 83.5638 41.2678 82.9366C40.4889 82.3095 38.4248 81.3297 36.7112 80.7417C34.9976 80.193 32.8166 79.2915 31.843 78.8212C30.8694 78.3508 29.3116 77.0574 28.3379 75.9991C27.3643 74.9409 26.118 73.0987 25.5339 71.9228C24.9497 70.747 24.4434 69.5711 24.4434 69.2968C24.4434 69.0224 24.5213 68.8265 24.6381 68.8265ZM60.3899 74.9801C60.5846 75.372 60.7014 77.2534 60.5846 79.2131C60.4288 82.0352 60.1952 83.1326 59.3773 84.7004C58.8321 85.7587 57.0406 87.9536 55.4049 89.5998C53.7692 91.2068 51.8609 93.4801 50.0304 96.8509L49.4073 95.675C48.94 94.7735 48.7842 93.4017 48.7842 89.9918C48.8231 86.621 48.9789 85.0924 49.4852 83.9949C49.8357 83.211 50.8093 81.8 51.6661 80.8593C52.484 79.9578 54.3144 78.5076 55.7554 77.6453C57.1964 76.783 58.7542 75.6464 59.2215 75.176C59.9615 74.3529 60.0783 74.3137 60.3899 74.9801ZM27.7537 81.2905L29.5063 81.9568C30.4799 82.2703 32.6609 82.7407 34.3744 82.9758C36.088 83.1718 38.269 83.7597 39.2037 84.2301C40.1773 84.7004 41.6962 85.9547 42.6308 87.0521C43.7213 88.3064 44.617 89.8742 45.0844 91.3636C45.5128 92.657 45.9412 94.7735 46.3306 98.4187L45.0454 97.1644C44.3055 96.4589 42.6698 95.4007 41.3846 94.7735C40.0994 94.1464 37.9185 93.2057 36.5164 92.6962C34.686 92.0299 33.4398 91.246 32.1156 89.9134C31.103 88.8551 29.8568 87.0913 29.3116 85.9547C28.8053 84.818 28.2211 83.3286 28.0653 82.6231L27.7537 81.2905ZM63.8171 90.3445C63.9339 90.3445 64.0118 90.4621 63.9339 90.6189C63.895 90.8148 63.6223 92.5002 63.3497 94.46C63.0771 96.6157 62.5319 98.7322 61.9477 99.9473C61.4025 101.006 60.4288 102.495 59.7278 103.2C59.0657 103.906 57.5469 105.16 56.3785 105.944C55.2102 106.728 53.8081 107.825 53.3018 108.374C52.7956 108.923 52.2114 109.864 51.9777 110.53C51.6272 111.627 51.5493 111.667 51.1988 110.922C51.0041 110.491 50.7315 108.649 50.6146 106.806C50.4588 104.611 50.5757 102.809 50.9262 101.515C51.1988 100.418 51.7051 99.1242 52.0166 98.5755C52.3672 98.0267 53.0682 97.0861 53.6134 96.4589C54.1586 95.871 55.2881 94.9303 56.067 94.4208C56.8848 93.9112 58.4426 93.1274 59.572 92.6962C60.7014 92.2651 62.0645 91.5595 62.6098 91.1284C63.1161 90.6973 63.6613 90.3445 63.8171 90.3445ZM30.5578 94.1856L31.8819 94.8519C32.583 95.2439 34.4134 95.7142 35.9323 95.871C37.6458 96.1062 39.4373 96.6549 40.8004 97.3604C42.3193 98.1443 43.3708 99.1242 44.3834 100.574C45.396 102.025 46.058 103.671 46.6033 105.827C46.9927 107.551 47.4211 109.707 47.5769 110.608C47.6937 111.549 47.6937 112.294 47.6158 112.294C47.499 112.294 46.5643 111.471 45.5517 110.412C44.4223 109.276 42.7866 108.178 41.3456 107.59C40.0994 107.081 38.3469 106.258 37.4901 105.748C36.6333 105.278 35.3091 104.259 34.5692 103.514C33.7513 102.73 32.7777 101.123 32.1156 99.5161C31.5314 98.0267 30.9473 96.2238 30.7915 95.4791L30.5578 94.1856ZM65.6864 105.631C65.7254 105.631 65.6864 106.767 65.5696 108.1C65.4138 109.432 64.9854 111.745 64.557 113.195C64.0507 114.881 63.3497 116.37 62.5319 117.271C61.8309 118.055 60.1173 119.466 58.7152 120.446C57.3522 121.465 55.1323 123.229 51.5104 126.561L51.4325 124.248C51.3546 122.955 51.5104 120.956 51.7051 119.741C51.9388 118.565 52.6008 116.527 53.224 115.233C53.8081 113.94 55.0544 112.059 56.028 111.039C57.3521 109.55 58.4426 108.884 60.8572 107.904C62.5708 107.238 64.3234 106.454 64.7517 106.179C65.1801 105.866 65.6085 105.631 65.6864 105.631ZM32.1546 107.551L34.0629 108.492C35.1144 109.041 37.3343 109.903 39.0479 110.491C41.1899 111.157 42.7477 111.98 43.916 112.999C45.0844 114.018 46.058 115.39 46.8369 117.036C47.4601 118.447 48.1221 120.877 48.3558 122.484C48.5505 124.131 48.6284 125.738 48.4726 126.13C48.239 126.717 47.8106 126.482 45.396 124.483C43.8381 123.229 41.3456 121.465 39.8268 120.642C38.0353 119.623 36.6333 118.447 35.6596 117.154C34.8028 116.056 33.8682 114.175 33.4398 112.686C33.0503 111.314 32.583 109.55 32.4272 108.845L32.1546 107.551ZM34.9197 121.426C35.4649 121.896 37.2564 122.798 38.8532 123.386C40.4889 123.974 42.4751 125.032 43.2929 125.738C44.1108 126.443 45.2402 127.972 45.8244 129.187C46.6033 130.872 46.8759 132.087 46.9927 134.87C47.0706 136.791 47.0317 139.221 46.9148 140.24C46.759 141.259 46.4864 142.121 46.2528 142.121C46.058 142.121 45.8633 141.886 45.9022 141.612C45.9022 141.337 45.1623 140.279 44.2276 139.221C43.3319 138.162 41.774 136.83 40.8394 136.281C39.9047 135.693 38.3858 134.439 37.529 133.459C36.5554 132.362 35.6207 130.676 35.0755 129.148C34.6081 127.737 34.0239 125.424 33.7903 123.974C33.5955 122.524 33.5176 121.152 33.6345 120.917C33.7903 120.681 34.2966 120.877 34.9197 121.426ZM67.7895 122.132C68.14 122.132 68.4516 122.21 68.4516 122.328C68.4516 122.406 67.9842 123.621 67.3611 124.954C66.7769 126.286 66.0369 128.011 65.7254 128.795C65.4528 129.54 64.7907 130.794 64.2844 131.617C63.8171 132.44 62.8434 133.498 62.1424 134.008C61.4414 134.517 59.8057 135.34 58.5205 135.811C57.2353 136.32 54.9376 137.575 50.5367 140.553L50.5367 138.986C50.5367 138.123 51.0041 136.007 51.5104 134.282C52.2114 132.048 53.0292 130.402 54.3923 128.677C55.4049 127.345 57.0406 125.738 57.9753 125.15C58.91 124.562 61.3635 123.66 63.3887 123.112C65.4528 122.602 67.4 122.132 67.7895 122.132Z" fill="#E9F5FF"/>
<path d="M72.1124 10.5835C71.2945 8.85893 70.7493 6.97757 70.5935 5.52735L70.3598 3.21484L71.4503 3.99874C72.0734 4.42989 73.5144 5.25298 74.6828 5.84091C75.8511 6.42883 77.1363 7.21273 77.5647 7.56549C77.9542 7.91824 78.6552 8.93731 79.1615 9.79961C79.6678 10.6619 80.2909 12.7392 80.6024 14.3854C80.94 16.3974 80.9789 17.5341 80.7193 17.7954C80.4856 18.0306 79.7456 17.8738 78.772 17.4426C77.9152 17.0115 76.3574 15.9532 75.3059 15.0125C74.0596 13.8759 73.0081 12.4257 72.1124 10.5835Z" fill="#FEFEFE"/>
<path d="M88.7031 11.1714C88.9367 11.1714 89.6767 10.3483 90.3777 9.36846L91.624 7.56549L92.0913 9.0549C92.325 9.91719 92.5586 11.6418 92.5976 12.9352C92.5976 14.2286 92.3639 16.1492 92.0134 17.2467C91.7018 18.3049 90.9229 19.9903 90.2609 20.9702C89.6377 21.9501 88.9757 23.2435 88.4694 25.0857L87.34 22.9299C86.3663 21.127 86.2106 20.3039 86.2106 17.8346C86.1716 15.3261 86.3274 14.6206 87.2621 13.0136C87.8463 11.9945 88.5083 11.1714 88.7031 11.1714Z" fill="#FEFEFE"/>
<path d="M67.5947 21.5581L69.8925 21.127C71.1387 20.8526 73.0471 20.6566 74.1375 20.6174C75.7343 20.539 76.3964 20.7742 78.0321 21.8717C79.1225 22.6164 80.6803 24.2234 81.615 25.5952C82.5108 26.9278 83.2118 28.0645 83.1728 28.1429C83.1339 28.2213 81.4982 28.1429 79.5899 27.9861C77.6426 27.7901 75.4227 27.4766 74.6049 27.2414C73.6702 27.0062 72.1513 25.9088 67.5947 21.5581Z" fill="#FEFEFE"/>
<path d="M92.0913 27.4766C92.4808 26.6143 93.9217 25.0073 95.2848 23.8706L97.7773 21.7933L98.1278 23.2435C98.3615 24.0274 98.4004 25.7128 98.2836 26.9278C98.1668 28.1821 97.8552 29.7891 97.5436 30.4554C97.271 31.1609 96.4142 32.4543 95.6353 33.3166C94.8954 34.1789 93.8049 35.6683 93.2597 36.6482C92.5976 37.7848 92.2081 38.216 92.0913 37.824C91.9745 37.5105 91.7018 35.9819 91.4292 34.4925C91.1566 32.9639 91.0398 31.1217 91.1566 30.377C91.2345 29.6323 91.6629 28.2997 92.0913 27.4766Z" fill="#FEFEFE"/>
<path d="M73.9818 32.8071C73.086 31.3569 73.0081 31.0433 73.5144 30.7689C73.826 30.573 75.228 30.5338 76.63 30.6514C78.0321 30.7689 80.0572 31.2393 81.1087 31.7488C82.2381 32.2192 83.5623 33.2382 84.3022 34.1397C84.9643 35.002 85.9769 36.6874 86.5221 37.9416C87.1063 39.1567 87.4568 40.2933 87.34 40.3717C87.2231 40.4893 86.6779 40.3325 86.0937 40.0582C85.5095 39.7446 83.796 39.1959 82.2771 38.8431C80.7972 38.4512 79.1225 37.9416 78.5773 37.6673C78.0321 37.3537 77.0195 36.5306 76.3185 35.8251C75.5785 35.0804 74.527 33.7478 73.9818 32.8071Z" fill="#FEFEFE"/>
<path d="M97.271 39.1959C97.972 38.5687 99.4909 37.4713 100.698 36.805C101.906 36.1387 102.918 35.5899 102.996 35.6291C103.035 35.6683 103.113 36.8442 103.152 38.216C103.191 39.823 102.957 41.3516 102.568 42.3315C102.139 43.3113 100.465 45.2711 94.6227 50.9544L94.428 49.3866C94.3112 48.5243 94.3891 46.6037 94.6227 45.0751C94.8564 43.5857 95.2459 41.9003 95.5185 41.3516C95.83 40.8421 96.6089 39.8622 97.271 39.1959Z" fill="#FEFEFE"/>
<path d="M78.811 44.8008C78.2657 43.5465 77.8373 42.1747 77.8763 41.7043C77.9152 41.1164 78.11 40.9596 78.5383 41.1556C78.8889 41.3124 80.4077 41.7827 81.8876 42.2139C83.4065 42.645 85.0033 43.2721 85.4317 43.6249C85.899 44.0169 86.639 44.7616 87.0674 45.2711C87.4958 45.8198 88.1968 47.0741 88.6252 48.0147C89.0536 48.9946 89.5209 50.6408 89.6377 51.6599C89.7546 52.679 89.7935 53.5021 89.6767 53.5021C89.5599 53.5021 88.9367 53.0317 88.2357 52.483C87.5347 51.8951 85.7432 50.876 84.2244 50.1705C82.7444 49.465 81.1087 48.4851 80.6414 47.9756C80.174 47.466 79.3562 46.0158 78.811 44.8008Z" fill="#FEFEFE"/>
<path d="M101.75 52.7965C103.035 52.287 104.359 51.7383 104.671 51.5423C104.982 51.3463 105.411 51.1895 105.566 51.1895C105.722 51.1895 105.839 51.3071 105.839 51.4639C105.839 51.6207 105.605 52.6398 105.333 53.698C105.021 54.7955 104.437 56.3633 104.009 57.2256C103.541 58.0879 102.801 59.1853 102.295 59.6165C101.789 60.0868 100.581 60.9099 99.6077 61.4586C98.6341 62.0466 97.2321 63.0656 95.129 64.947L95.0122 62.8697C94.9733 61.6938 95.168 59.9692 95.4795 58.9894C95.83 58.0095 96.8037 56.4417 97.7384 55.4618C98.8678 54.2468 100.192 53.3845 101.75 52.7965Z" fill="#FEFEFE"/>
<path d="M80.3298 56.6377C79.8235 55.697 79.3173 54.2076 79.1615 53.3845C78.9278 51.9734 78.9278 51.8951 79.6288 52.2478C80.0183 52.483 81.3424 52.8357 82.5887 53.0709C84.1854 53.3845 85.2369 53.894 86.2106 54.7955C86.9895 55.501 88.002 56.6768 88.4304 57.4215C88.8978 58.2055 89.482 59.6949 89.7546 60.7531C90.0272 61.8506 90.2609 63.2616 90.2609 63.8887C90.2998 64.9862 90.2609 65.0254 89.5988 64.4375C89.2094 64.1239 87.7684 63.144 86.3663 62.2817C84.9643 61.4586 83.2507 60.2436 82.5108 59.5773C81.8098 58.9502 80.7972 57.6175 80.3298 56.6377Z" fill="#FEFEFE"/>
<path d="M80.3688 69.4936C79.8625 68.357 79.3562 66.5932 79.2004 65.5741C79.0446 64.555 79.0057 63.6928 79.1225 63.6928C79.2783 63.6928 80.8361 64.3983 82.6665 65.2606C84.8475 66.3188 86.3274 67.2595 86.9116 68.1218C87.4568 68.8273 88.0799 69.9248 88.3526 70.5519C88.5862 71.2182 88.9367 73.0212 89.1315 74.589C89.3262 76.1568 89.4041 77.6462 89.2872 77.9205C89.1315 78.2341 88.3526 77.7246 87.0284 76.4311C85.899 75.3729 84.1465 73.8051 83.1339 73.0212C81.9655 72.0413 80.9919 70.8262 80.3688 69.4936Z" fill="#FEFEFE"/>
<path d="M100.387 66.9851C101.36 66.6324 102.684 66.1228 103.308 65.8485C103.97 65.5741 104.554 65.2997 104.593 65.2997C104.671 65.2997 104.632 66.0836 104.515 67.0243C104.398 68.0042 103.931 69.5328 103.463 70.4735C102.996 71.375 102.373 72.4724 102.022 72.8644C101.672 73.2563 100.231 74.3146 98.8288 75.2553C97.4268 76.1568 95.7911 77.4502 95.129 78.1165C94.5059 78.822 93.8438 79.3708 93.6881 79.3708C93.5323 79.3708 93.3765 78.9004 93.3765 78.3125C93.3765 77.7246 93.6491 76.3527 93.9217 75.2553C94.1943 74.197 94.7006 72.7076 95.0122 71.9237C95.3238 71.179 96.2974 69.8856 97.1152 69.0625C97.972 68.2394 99.413 67.2987 100.387 66.9851Z" fill="#FEFEFE"/>
<path d="M78.772 78.5869C78.6162 77.6462 78.4215 76.3527 78.3436 75.7648C78.2268 75.1769 78.2657 74.6674 78.4605 74.6674C78.6162 74.6674 79.8235 75.1769 81.1087 75.804C82.3939 76.4311 84.0296 77.5286 84.6917 78.2733C85.3927 78.9788 86.2106 80.3898 86.5611 81.3305C86.9116 82.3888 87.1842 84.3877 87.1453 86.3475C87.1453 88.1113 87.0284 89.5615 86.8726 89.6007C86.7169 89.6007 86.2885 89.1303 85.9769 88.5816C85.6653 88.0329 84.458 86.7394 83.2897 85.7204C82.1213 84.7013 80.6803 83.0943 80.0572 82.1144C79.473 81.1737 78.8889 79.5667 78.772 78.5869Z" fill="#FEFEFE"/>
<path d="M97.0763 81.84C97.7384 81.4873 99.1404 81.0953 100.192 80.9386C101.282 80.7818 102.529 80.625 103.035 80.625C103.502 80.5858 103.892 80.7034 103.892 80.8602C103.892 81.0169 103.269 82.428 102.529 83.9958C101.516 86.0731 100.737 87.1314 99.5298 88.0329C98.5952 88.66 96.9984 89.4831 95.9079 89.8358C94.8564 90.1494 93.4154 90.7765 92.7144 91.1685C91.8187 91.7172 91.4292 91.7564 91.4292 91.4428C91.4292 91.1685 91.7797 89.7574 92.2081 88.3072C92.7534 86.5043 93.4544 85.1324 94.467 84.035C95.2459 83.1335 96.4532 82.1536 97.0763 81.84Z" fill="#FEFEFE"/>
<path d="M76.5521 91.2077C76.2016 90.1886 75.8901 88.268 75.8511 86.9354L75.8122 84.5053L77.8373 85.9555C78.9667 86.7786 80.5635 88.0329 81.4203 88.7776C82.2382 89.5615 83.2118 90.6981 83.5233 91.3252C83.8349 91.9916 84.1854 94.1865 84.3412 96.2246C84.458 98.302 84.3801 100.262 84.1854 100.654C83.8739 101.281 83.6402 101.085 82.4329 99.2818C81.654 98.1452 80.1351 96.2638 79.1225 95.1272C78.071 93.9513 76.9416 92.1875 76.5521 91.2077Z" fill="#FEFEFE"/>
<path d="M94.3501 94.0689C95.2069 93.4418 96.4921 92.6971 97.271 92.4227C98.011 92.1483 98.9067 91.9524 99.2183 91.9524C99.5298 91.9132 100.698 92.0699 103.814 92.5011L103.074 93.9905C102.684 94.7744 101.516 96.303 100.503 97.3613C99.413 98.4979 98.1278 99.3994 97.4657 99.5562C96.8426 99.713 94.6227 100.223 92.5976 100.732C90.5724 101.242 88.8588 101.594 88.8199 101.477C88.742 101.398 89.1704 100.497 89.7156 99.4778C90.2609 98.4587 91.1566 97.0869 91.7408 96.4206C92.325 95.7935 93.4933 94.7352 94.3501 94.0689Z" fill="#FEFEFE"/>
<path d="M72.8913 101.124C72.6187 99.8306 72.385 98.2236 72.3461 97.5181C72.3461 96.8125 72.4239 96.2246 72.5408 96.2246C72.6576 96.2246 73.826 96.8517 75.1891 97.6356C76.5132 98.4195 78.071 99.6346 78.6941 100.301C79.2783 100.967 80.0183 102.417 80.3298 103.476C80.6803 104.573 80.914 106.886 80.914 108.689C80.914 110.452 80.7972 112.216 80.6803 112.608C80.4856 113.157 80.1741 112.882 79.1615 111.315C78.4605 110.256 77.1753 108.728 76.3574 107.983C75.5396 107.238 74.527 105.906 74.1375 105.043C73.7091 104.181 73.1639 102.417 72.8913 101.124Z" fill="#FEFEFE"/>
<path d="M90.6893 104.377C91.4292 103.907 92.6365 103.28 93.3765 103.005C94.1165 102.77 96.0248 102.535 97.5826 102.535C99.1015 102.496 100.387 102.574 100.387 102.692C100.387 102.809 99.6467 103.985 98.7899 105.357C97.8941 106.69 96.7258 108.297 96.1416 108.885C95.5964 109.512 94.8175 110.178 94.467 110.374C94.0775 110.57 92.4808 110.962 90.9619 111.276C89.4041 111.589 87.4568 112.099 86.6779 112.451C85.5874 112.922 85.198 112.961 85.198 112.608C85.198 112.334 85.5874 111.315 86.0937 110.335C86.5611 109.355 87.4958 107.826 88.1578 106.925C88.781 106.023 89.9493 104.848 90.6893 104.377Z" fill="#FEFEFE"/>
</svg>
