<svg width="583" height="542" viewBox="0 0 583 542" fill="none" xmlns="http://www.w3.org/2000/svg">
<path d="M505.986 2.19421C500.662 3.53003 492.397 6.06812 487.774 7.67108C471.103 13.4152 460.456 15.686 450.369 15.686C437.62 15.686 420.109 18.7584 412.684 22.3651C403.718 26.7733 396.293 34.1204 391.81 43.0704C388.167 50.2838 387.607 53.089 387.607 62.3062C387.607 74.5958 386.486 75.5309 378.781 69.9204C370.796 64.0428 367.153 63.3749 354.545 65.1114C340.956 67.1152 338.294 66.5808 330.028 60.5696C326.386 57.898 321.483 55.4935 318.12 55.0928C313.357 54.2913 311.816 54.692 308.034 57.7644C303.13 61.7719 299.908 61.6383 288.841 56.9629C283.237 54.5584 282.397 54.5584 271.75 56.5622L260.542 58.6995L243.17 52.0204C193.017 32.9181 158.414 26.907 125.212 31.8495C105.599 34.7883 97.193 39.4637 90.1883 51.7533L87.6666 56.1614L78.2803 55.2263C65.5318 54.1577 64.6913 54.8257 64.8314 66.1801C65.1115 75.5309 66.0922 78.3361 75.3384 94.4995C80.6619 103.717 84.8647 118.678 85.0048 128.429C85.0048 132.704 84.0242 134.441 79.9615 138.047C77.2997 140.585 74.2176 142.589 73.3771 142.589C69.4545 142.589 48.0201 159.821 39.1942 169.973C27.0061 184.133 23.0835 195.354 22.8033 216.861L22.6632 232.891L14.1175 241.841C7.39302 248.921 5.01143 252.394 3.33031 258.539C-2.27344 277.641 -1.15269 284.453 9.35433 295.274C17.9 304.224 21.9627 305.559 39.7546 305.559C54.3244 305.559 55.305 305.693 61.6092 309.433C71.5558 315.578 77.8601 316.914 86.686 314.91C90.7487 314.109 97.4732 313.04 101.536 312.639C108.681 311.971 109.101 312.239 116.666 318.25C121.99 322.658 125.912 324.795 129.695 325.196C134.598 325.864 135.719 325.33 143.004 319.051C147.346 315.311 151.409 312.239 151.97 312.239C152.53 312.239 155.472 312.906 158.694 313.574C162.617 314.509 166.399 314.242 171.443 313.04C180.128 310.903 181.109 310.101 194.418 298.346C205.765 288.194 216.132 282.984 230.422 280.179C245.692 277.24 254.658 279.511 279.595 292.736C287.44 297.01 303.831 303.422 310.695 304.892C312.797 305.426 316.439 307.43 318.961 309.3C323.164 312.639 323.584 313.975 325.405 326.265C327.227 337.486 328.627 341.76 334.511 352.848C344.178 371.148 349.501 380.098 354.545 387.045C361.129 395.995 364.211 402.941 362.53 405.479C359.448 410.288 345.299 409.486 333.671 403.742C317 395.727 308.594 402.273 314.898 418.436C317.42 424.848 317.56 426.318 315.879 428.322C314.898 429.657 306.353 439.943 296.966 451.164C287.44 462.251 279.735 472.27 279.735 473.205C279.735 475.209 286.179 480.018 292.904 483.357C299.488 486.43 312.797 485.762 321.763 481.621C333.811 476.144 337.173 475.877 342.777 479.751C352.023 486.163 353.844 486.697 356.926 483.758C359.448 481.22 359.448 480.686 357.487 474.541C355.105 466.793 354.825 461.316 356.786 457.843C357.627 456.507 363.931 453.301 371.496 450.496C389.008 443.951 392.51 440.344 397.413 423.112C402.457 405.479 405.679 401.338 417.727 396.93C423.191 394.926 428.234 394.392 440.842 394.392C454.852 394.392 457.794 394.792 462.977 397.464C473.064 402.54 473.064 407.616 462.837 403.876C454.431 400.937 448.267 401.071 446.446 404.41C444.205 408.284 445.886 411.891 450.649 413.761C452.89 414.696 456.533 417.635 458.634 420.307C463.678 426.585 467.04 429.39 473.764 432.863C478.948 435.535 481.049 435.669 504.305 435.401C525.179 435.001 529.942 435.268 532.604 437.004C536.246 439.275 536.106 441.813 532.183 446.088C529.522 449.027 512.29 456.908 500.382 460.648C495.339 462.118 489.455 464.789 487.353 466.526C484.131 469.198 483.851 470.133 484.972 473.339C486.373 477.346 486.093 477.079 508.367 484.426C514.391 486.296 525.599 495.38 528.401 500.723C531.203 505.666 531.063 508.471 527.7 518.089C525.179 525.035 525.039 526.772 526.58 531.581C528.821 538.66 534.285 542 543.811 542C552.777 542 559.782 538.794 570.849 529.978C577.574 524.634 582.477 522.096 591.583 519.157C606.153 514.482 610.356 511.81 615.819 503.261C621.003 495.38 623.244 494.979 635.012 500.055C645.659 504.731 658.688 504.33 664.432 499.254C669.895 494.311 671.997 489.502 671.997 482.155C671.997 476.678 671.296 474.808 667.934 471.335C661.35 464.656 655.886 465.591 640.195 475.61C636.133 478.148 629.548 481.354 625.626 482.556C618.901 484.693 618.061 484.693 613.578 482.689C608.815 480.552 606.153 476.278 606.153 470.4C606.153 466.392 602.51 459.179 599.288 456.775C598.027 455.973 594.385 453.301 591.023 451.031C586.119 447.825 584.999 446.355 585.419 443.416C585.839 440.344 586.82 439.542 592.704 438.207C601.109 436.203 605.312 432.596 610.216 423.245C613.298 417.234 615.259 415.23 621.703 411.891C626.046 409.62 633.331 404.01 637.954 399.334C647.06 390.117 646.22 390.384 666.533 391.052C679.282 391.319 681.103 390.785 697.494 381.968C700.296 380.499 702.957 379.564 703.378 379.965C703.798 380.499 704.218 380.232 704.218 379.43C704.218 377.427 716.827 372.885 729.435 370.213C750.309 365.805 752.551 364.068 752.691 351.111C752.691 346.302 753.251 340.959 753.811 339.222C754.932 336.15 762.497 332.276 767.4 332.276C769.782 332.276 774.545 327.066 779.308 319.452C780.569 317.448 783.371 316.914 797.801 316.246C813.351 315.445 815.032 315.044 819.655 311.704C825.82 307.296 830.302 299.281 830.302 292.869C830.302 290.331 828.761 284.453 826.8 279.912C822.037 268.557 822.177 262.412 827.501 256.535C832.964 250.657 832.824 247.05 827.22 242.509L822.597 238.902L829.042 236.23C836.887 232.891 838.568 231.021 839.689 225.009C841.09 216.46 837.727 207.376 830.302 199.629C822.317 191.347 815.453 187.473 794.579 179.992C786.173 176.92 777.347 173.58 774.966 172.645C763.618 167.703 759.275 166.634 751.01 166.634C746.246 166.634 741.763 167.168 741.343 167.97C740.923 168.638 738.401 169.306 735.739 169.306C729.995 169.306 726.913 165.565 723.411 154.612C718.228 138.849 708.561 134.841 693.431 142.188C680.262 148.734 674.939 148.867 656.586 143.123C651.403 141.52 644.398 140.719 635.572 140.585C622.964 140.585 622.263 140.452 620.442 137.246C619.041 134.841 618.761 130.3 619.322 120.281C620.162 104.919 618.481 97.8391 612.037 91.4272C605.873 85.2824 601.67 83.8129 589.342 83.8129C570.289 83.8129 564.545 79.4047 563.144 63.9092C562.584 57.2301 562.864 55.7607 566.927 50.0167C570.009 45.7421 571.129 42.8032 570.569 40.6659C570.149 39.0629 565.386 30.9144 559.922 22.6323C547.454 3.93079 542.69 0.724792 526.44 0.0568848C519.155 -0.210266 512.71 0.457642 505.986 2.19421Z" fill="#E9F5FF"/>
</svg>
