<svg width="58" height="58" viewBox="0 0 58 58" fill="none" xmlns="http://www.w3.org/2000/svg">
<path d="M21.573 38.6719L20.3642 48.3426" stroke="#323232" stroke-width="1.5" stroke-linecap="round" stroke-linejoin="round"/>
<path d="M49.3764 21.7482V13.1123C49.3764 9.87033 46.7483 7.24219 43.5063 7.24219H13.1113C9.86935 7.24219 7.24121 9.87033 7.24121 13.1123V32.8018C7.24121 36.0438 9.86935 38.6719 13.1113 38.6719H31.4179" stroke="#323232" stroke-width="1.5" stroke-linecap="round" stroke-linejoin="round"/>
<path fill-rule="evenodd" clip-rule="evenodd" d="M51.9686 50.7589H36.2538C35.5861 50.7589 35.0449 50.2177 35.0449 49.55V48.5685C35.0529 45.7758 37.3148 43.5138 40.1075 43.5059H48.1149C50.9076 43.5138 53.1695 45.7758 53.1775 48.5685V49.55C53.1775 50.2177 52.6363 50.7589 51.9686 50.7589Z" stroke="#323232" stroke-width="1.5" stroke-linecap="round" stroke-linejoin="round"/>
<path fill-rule="evenodd" clip-rule="evenodd" d="M44.1108 37.4617C41.4422 37.4564 39.2825 35.2901 39.2852 32.6215C39.2878 29.9529 41.4519 27.791 44.1205 27.791C46.7891 27.791 48.9532 29.9529 48.9559 32.6215C48.9585 35.2901 46.7988 37.4564 44.1302 37.4617H44.1108Z" stroke="#323232" stroke-width="1.5" stroke-linecap="round" stroke-linejoin="round"/>
<path d="M16.7383 48.3417H26.583" stroke="#323232" stroke-width="1.5" stroke-linecap="round" stroke-linejoin="round"/>
</svg>
